<svg width="93" height="60" viewBox="0 0 93 60" fill="none" xmlns="http://www.w3.org/2000/svg">
<circle cx="30" cy="30" r="30" fill="#F91111"/>
<path d="M36.5117 30.5918C33.6172 29.7598 31.5078 28.7402 30.1836 27.5332C28.8711 26.3145 28.2148 24.8145 28.2148 23.0332C28.2148 21.0176 29.0176 19.3535 30.623 18.041C32.2402 16.7168 34.3379 16.0547 36.916 16.0547C38.6738 16.0547 40.2383 16.3945 41.6094 17.0742C42.9922 17.7539 44.0586 18.6914 44.8086 19.8867C45.5703 21.082 45.9512 22.3887 45.9512 23.8066H42.5586C42.5586 22.2598 42.0664 21.0469 41.082 20.168C40.0977 19.2773 38.709 18.832 36.916 18.832C35.252 18.832 33.9512 19.2012 33.0137 19.9395C32.0879 20.666 31.625 21.6797 31.625 22.9805C31.625 24.0234 32.0645 24.9082 32.9434 25.6348C33.834 26.3496 35.3398 27.0059 37.4609 27.6035C39.5938 28.2012 41.2578 28.8633 42.4531 29.5898C43.6602 30.3047 44.5508 31.1426 45.125 32.1035C45.7109 33.0645 46.0039 34.1953 46.0039 35.4961C46.0039 37.5703 45.1953 39.2344 43.5781 40.4883C41.9609 41.7305 39.7988 42.3516 37.0918 42.3516C35.334 42.3516 33.6934 42.0176 32.1699 41.3496C30.6465 40.6699 29.4688 39.7441 28.6367 38.5723C27.8164 37.4004 27.4062 36.0703 27.4062 34.582H30.7988C30.7988 36.1289 31.3672 37.3535 32.5039 38.2559C33.6523 39.1465 35.1816 39.5918 37.0918 39.5918C38.873 39.5918 40.2383 39.2285 41.1875 38.502C42.1367 37.7754 42.6113 36.7852 42.6113 35.5312C42.6113 34.2773 42.1719 33.3105 41.293 32.6309C40.4141 31.9395 38.8203 31.2598 36.5117 30.5918ZM57.8867 30.5918C54.9922 29.7598 52.8828 28.7402 51.5586 27.5332C50.2461 26.3145 49.5898 24.8145 49.5898 23.0332C49.5898 21.0176 50.3926 19.3535 51.998 18.041C53.6152 16.7168 55.7129 16.0547 58.291 16.0547C60.0488 16.0547 61.6133 16.3945 62.9844 17.0742C64.3672 17.7539 65.4336 18.6914 66.1836 19.8867C66.9453 21.082 67.3262 22.3887 67.3262 23.8066H63.9336C63.9336 22.2598 63.4414 21.0469 62.457 20.168C61.4727 19.2773 60.084 18.832 58.291 18.832C56.627 18.832 55.3262 19.2012 54.3887 19.9395C53.4629 20.666 53 21.6797 53 22.9805C53 24.0234 53.4395 24.9082 54.3184 25.6348C55.209 26.3496 56.7148 27.0059 58.8359 27.6035C60.9688 28.2012 62.6328 28.8633 63.8281 29.5898C65.0352 30.3047 65.9258 31.1426 66.5 32.1035C67.0859 33.0645 67.3789 34.1953 67.3789 35.4961C67.3789 37.5703 66.5703 39.2344 64.9531 40.4883C63.3359 41.7305 61.1738 42.3516 58.4668 42.3516C56.709 42.3516 55.0684 42.0176 53.5449 41.3496C52.0215 40.6699 50.8438 39.7441 50.0117 38.5723C49.1914 37.4004 48.7812 36.0703 48.7812 34.582H52.1738C52.1738 36.1289 52.7422 37.3535 53.8789 38.2559C55.0273 39.1465 56.5566 39.5918 58.4668 39.5918C60.248 39.5918 61.6133 39.2285 62.5625 38.502C63.5117 37.7754 63.9863 36.7852 63.9863 35.5312C63.9863 34.2773 63.5469 33.3105 62.668 32.6309C61.7891 31.9395 60.1953 31.2598 57.8867 30.5918ZM85.8535 35.3203H75.1309L72.7227 42H69.2422L79.0156 16.4062H81.9688L91.7598 42H88.2969L85.8535 35.3203ZM76.1504 32.543H84.8516L80.4922 20.5723L76.1504 32.543Z" fill="black"/>
</svg>
