<svg width="65" height="27" viewBox="0 0 65 27" fill="none" xmlns="http://www.w3.org/2000/svg">
<path d="M9.51172 14.5918C6.61719 13.7598 4.50781 12.7402 3.18359 11.5332C1.87109 10.3145 1.21484 8.81445 1.21484 7.0332C1.21484 5.01758 2.01758 3.35352 3.62305 2.04102C5.24023 0.716797 7.33789 0.0546875 9.91602 0.0546875C11.6738 0.0546875 13.2383 0.394531 14.6094 1.07422C15.9922 1.75391 17.0586 2.69141 17.8086 3.88672C18.5703 5.08203 18.9512 6.38867 18.9512 7.80664H15.5586C15.5586 6.25977 15.0664 5.04688 14.082 4.16797C13.0977 3.27734 11.709 2.83203 9.91602 2.83203C8.25195 2.83203 6.95117 3.20117 6.01367 3.93945C5.08789 4.66602 4.625 5.67969 4.625 6.98047C4.625 8.02344 5.06445 8.9082 5.94336 9.63477C6.83398 10.3496 8.33984 11.0059 10.4609 11.6035C12.5938 12.2012 14.2578 12.8633 15.4531 13.5898C16.6602 14.3047 17.5508 15.1426 18.125 16.1035C18.7109 17.0645 19.0039 18.1953 19.0039 19.4961C19.0039 21.5703 18.1953 23.2344 16.5781 24.4883C14.9609 25.7305 12.7988 26.3516 10.0918 26.3516C8.33398 26.3516 6.69336 26.0176 5.16992 25.3496C3.64648 24.6699 2.46875 23.7441 1.63672 22.5723C0.816406 21.4004 0.40625 20.0703 0.40625 18.582H3.79883C3.79883 20.1289 4.36719 21.3535 5.50391 22.2559C6.65234 23.1465 8.18164 23.5918 10.0918 23.5918C11.873 23.5918 13.2383 23.2285 14.1875 22.502C15.1367 21.7754 15.6113 20.7852 15.6113 19.5312C15.6113 18.2773 15.1719 17.3105 14.293 16.6309C13.4141 15.9395 11.8203 15.2598 9.51172 14.5918ZM30.8867 14.5918C27.9922 13.7598 25.8828 12.7402 24.5586 11.5332C23.2461 10.3145 22.5898 8.81445 22.5898 7.0332C22.5898 5.01758 23.3926 3.35352 24.998 2.04102C26.6152 0.716797 28.7129 0.0546875 31.291 0.0546875C33.0488 0.0546875 34.6133 0.394531 35.9844 1.07422C37.3672 1.75391 38.4336 2.69141 39.1836 3.88672C39.9453 5.08203 40.3262 6.38867 40.3262 7.80664H36.9336C36.9336 6.25977 36.4414 5.04688 35.457 4.16797C34.4727 3.27734 33.084 2.83203 31.291 2.83203C29.627 2.83203 28.3262 3.20117 27.3887 3.93945C26.4629 4.66602 26 5.67969 26 6.98047C26 8.02344 26.4395 8.9082 27.3184 9.63477C28.209 10.3496 29.7148 11.0059 31.8359 11.6035C33.9688 12.2012 35.6328 12.8633 36.8281 13.5898C38.0352 14.3047 38.9258 15.1426 39.5 16.1035C40.0859 17.0645 40.3789 18.1953 40.3789 19.4961C40.3789 21.5703 39.5703 23.2344 37.9531 24.4883C36.3359 25.7305 34.1738 26.3516 31.4668 26.3516C29.709 26.3516 28.0684 26.0176 26.5449 25.3496C25.0215 24.6699 23.8438 23.7441 23.0117 22.5723C22.1914 21.4004 21.7812 20.0703 21.7812 18.582H25.1738C25.1738 20.1289 25.7422 21.3535 26.8789 22.2559C28.0273 23.1465 29.5566 23.5918 31.4668 23.5918C33.248 23.5918 34.6133 23.2285 35.5625 22.502C36.5117 21.7754 36.9863 20.7852 36.9863 19.5312C36.9863 18.2773 36.5469 17.3105 35.668 16.6309C34.7891 15.9395 33.1953 15.2598 30.8867 14.5918ZM58.8535 19.3203H48.1309L45.7227 26H42.2422L52.0156 0.40625H54.9688L64.7598 26H61.2969L58.8535 19.3203ZM49.1504 16.543H57.8516L53.4922 4.57227L49.1504 16.543Z" fill="black"/>
</svg>
